<mxfile host="Electron" modified="2024-07-25T12:36:45.048Z" agent="Mozilla/5.0 (Windows NT 10.0; Win64; x64) AppleWebKit/537.36 (KHTML, like Gecko) draw.io/24.6.4 Chrome/124.0.6367.207 Electron/30.0.6 Safari/537.36" etag="jPmRh8tHbZN_xX6eNPDs" version="24.6.4" type="device">
  <diagram name="PÃ¡gina-1" id="WE2pUc0avi-sQZxJDUj7">
    <mxGraphModel dx="3328" dy="2013" grid="1" gridSize="10" guides="1" tooltips="1" connect="1" arrows="1" fold="1" page="1" pageScale="1" pageWidth="827" pageHeight="1169" math="0" shadow="0">
      <root>
        <mxCell id="0" />
        <mxCell id="1" parent="0" />
        <mxCell id="ZUz2KvsxticBc7hCQWdF-1" value="Modelo Final" style="text;strokeColor=none;fillColor=none;html=1;fontSize=24;fontStyle=1;verticalAlign=middle;align=center;" vertex="1" parent="1">
          <mxGeometry x="-267" y="-1081" width="160" height="41" as="geometry" />
        </mxCell>
        <mxCell id="ZUz2KvsxticBc7hCQWdF-2" value="" style="endArrow=none;html=1;rounded=0;" edge="1" parent="1">
          <mxGeometry width="50" height="50" relative="1" as="geometry">
            <mxPoint x="-960" y="-510" as="sourcePoint" />
            <mxPoint x="-960" y="-1090" as="targetPoint" />
          </mxGeometry>
        </mxCell>
        <mxCell id="ZUz2KvsxticBc7hCQWdF-3" value="" style="endArrow=none;html=1;rounded=0;" edge="1" parent="1">
          <mxGeometry width="50" height="50" relative="1" as="geometry">
            <mxPoint x="512" y="-510" as="sourcePoint" />
            <mxPoint x="511" y="-1090" as="targetPoint" />
          </mxGeometry>
        </mxCell>
        <mxCell id="ZUz2KvsxticBc7hCQWdF-4" value="" style="endArrow=none;html=1;rounded=0;" edge="1" parent="1">
          <mxGeometry width="50" height="50" relative="1" as="geometry">
            <mxPoint x="512" y="-510" as="sourcePoint" />
            <mxPoint x="-958" y="-510" as="targetPoint" />
          </mxGeometry>
        </mxCell>
        <mxCell id="ZUz2KvsxticBc7hCQWdF-5" value="" style="endArrow=none;html=1;rounded=0;" edge="1" parent="1">
          <mxGeometry width="50" height="50" relative="1" as="geometry">
            <mxPoint x="510" y="-1090" as="sourcePoint" />
            <mxPoint x="-959" y="-1090" as="targetPoint" />
          </mxGeometry>
        </mxCell>
        <mxCell id="ZUz2KvsxticBc7hCQWdF-6" value="" style="endArrow=none;html=1;rounded=0;" edge="1" parent="1">
          <mxGeometry width="50" height="50" relative="1" as="geometry">
            <mxPoint x="512" y="-1040" as="sourcePoint" />
            <mxPoint x="-959" y="-1040" as="targetPoint" />
          </mxGeometry>
        </mxCell>
        <mxCell id="ZUz2KvsxticBc7hCQWdF-7" value="&lt;div style=&quot;box-sizing:border-box;width:100%;background:#e4e4e4;padding:2px;&quot;&gt;&lt;b&gt;ano_quadrimestre&lt;/b&gt;&lt;/div&gt;&lt;table style=&quot;width:100%;font-size:1em;&quot; cellpadding=&quot;2&quot; cellspacing=&quot;0&quot;&gt;&lt;tbody&gt;&lt;tr&gt;&lt;td&gt;&lt;b&gt;PK &lt;/b&gt;id_ano_quad SERIAL&lt;br&gt;ano INT&lt;br&gt;quad INT (1,2 ou 3)&lt;br&gt;ano_quad VARCHAR(10) --EX: 2024.1&lt;br&gt;&lt;br&gt;&lt;/td&gt;&lt;td&gt;&lt;br&gt;&lt;/td&gt;&lt;/tr&gt;&lt;tr&gt;&lt;td&gt;&lt;/td&gt;&lt;td&gt;&lt;br&gt;&lt;br&gt;&lt;/td&gt;&lt;/tr&gt;&lt;tr&gt;&lt;td&gt;&lt;/td&gt;&lt;td&gt;&lt;br&gt;&lt;br&gt;&lt;/td&gt;&lt;/tr&gt;&lt;/tbody&gt;&lt;/table&gt;" style="verticalAlign=top;align=left;overflow=fill;html=1;rounded=0;shadow=0;comic=0;labelBackgroundColor=none;strokeWidth=1;fontFamily=Verdana;fontSize=12" vertex="1" parent="1">
          <mxGeometry x="-840" y="-910" width="505" height="130" as="geometry" />
        </mxCell>
        <mxCell id="ZUz2KvsxticBc7hCQWdF-11" value="&lt;div style=&quot;box-sizing:border-box;width:100%;background:#e4e4e4;padding:2px;&quot;&gt;&lt;b&gt;periodo&lt;/b&gt;&lt;/div&gt;&lt;table style=&quot;width:100%;font-size:1em;&quot; cellpadding=&quot;2&quot; cellspacing=&quot;0&quot;&gt;&lt;tbody&gt;&lt;tr&gt;&lt;td&gt;&lt;b&gt;PK &lt;/b&gt;id_periodo SERIAL&lt;br&gt;descricao VARCHAR(100)&lt;br&gt;data_inicio DATE&lt;br&gt;data_fim DATE&lt;br&gt;&lt;br&gt;&lt;/td&gt;&lt;td&gt;&lt;br&gt;&lt;/td&gt;&lt;/tr&gt;&lt;tr&gt;&lt;td&gt;&lt;/td&gt;&lt;td&gt;&lt;br&gt;&lt;br&gt;&lt;/td&gt;&lt;/tr&gt;&lt;tr&gt;&lt;td&gt;&lt;/td&gt;&lt;td&gt;&lt;br&gt;&lt;br&gt;&lt;/td&gt;&lt;/tr&gt;&lt;/tbody&gt;&lt;/table&gt;" style="verticalAlign=top;align=left;overflow=fill;html=1;rounded=0;shadow=0;comic=0;labelBackgroundColor=none;strokeWidth=1;fontFamily=Verdana;fontSize=12" vertex="1" parent="1">
          <mxGeometry x="-230" y="-910" width="505" height="130" as="geometry" />
        </mxCell>
      </root>
    </mxGraphModel>
  </diagram>
</mxfile>
